<?xml version="1.0" standalone="no"?>
<!DOCTYPE svg PUBLIC "-//W3C//DTD SVG 20010904//EN"
 "http://www.w3.org/TR/2001/REC-SVG-20010904/DTD/svg10.dtd">
<svg version="1.0" xmlns="http://www.w3.org/2000/svg"
 width="512.000000pt" height="512.000000pt" viewBox="0 0 512.000000 512.000000"
 preserveAspectRatio="xMidYMid meet">

<g transform="translate(0.000000,512.000000) scale(0.100000,-0.100000)"
fill="#000000" stroke="none">
<path d="M2702 5099 c-102 -51 -131 -183 -60 -274 34 -44 84 -62 193 -70 265
-19 508 -132 680 -316 61 -66 135 -170 172 -244 49 -96 103 -306 103 -396 l0
-29 -134 0 c-126 0 -135 -1 -141 -20 -3 -11 -4 -28 -1 -38 8 -25 439 -452 456
-452 19 0 470 451 470 470 0 35 -22 40 -157 40 l-133 0 0 43 c0 67 -27 224
-55 322 -34 121 -140 331 -219 436 -222 293 -551 486 -915 534 -151 21 -208
19 -259 -6z"/>
<path d="M339 4037 c-102 -43 -164 -104 -206 -206 l-23 -56 0 -1735 c0 -1877
-3 -1780 53 -1866 38 -60 96 -110 162 -141 l60 -28 939 -3 c1042 -3 1009 -5
1109 63 64 42 103 91 136 169 l26 61 3 1690 c1 1031 -1 1716 -7 1758 -18 126
-87 225 -201 284 l-55 28 -970 2 -970 3 -56 -23z m1891 -1822 l0 -1485 -880 0
-880 0 0 1485 0 1485 880 0 880 0 0 -1485z m-766 -1688 c90 -69 103 -201 28
-281 -58 -62 -144 -81 -217 -47 -141 64 -152 268 -18 341 57 31 157 24 207
-13z"/>
<path d="M2960 2310 l0 -180 845 0 845 0 0 -885 0 -885 -844 0 -845 0 -6 -47
c-11 -87 -35 -177 -65 -242 -17 -35 -30 -65 -30 -67 0 -3 422 -3 938 -2 l937
3 60 28 c97 45 171 129 201 226 19 64 21 1904 1 1966 -33 105 -103 186 -202
232 l-60 28 -887 3 -888 3 0 -181z"/>
</g>
</svg>
